<?xml version="1.0" encoding="utf-8"?>
<!-- Generator: Adobe Illustrator 22.1.0, SVG Export Plug-In . SVG Version: 6.00 Build 0)  -->
<svg version="1.1" xmlns="http://www.w3.org/2000/svg" xmlns:xlink="http://www.w3.org/1999/xlink" x="0px" y="0px"
	 viewBox="0 0 16 18.3" xml:space="preserve">
<path d="M11.2,10.9c-1,0-1.5,0.6-3.2,0.6s-2.2-0.6-3.2-0.6C2.2,10.9,0,13,0,15.7v0.9c0,0.9,0.8,1.7,1.7,1.7c0,0,0,0,0,0
	h12.6c0.9,0,1.7-0.8,1.7-1.7v-0.9C16,13,13.9,10.9,11.2,10.9z M14.3,16.6H1.7v-0.9c0-1.7,1.4-3.1,3.1-3.1c1,0.3,2.1,0.5,3.2,0.6
	c1.1-0.1,2.2-0.3,3.2-0.6c1.7,0,3.1,1.4,3.1,3.1V16.6z M8,10.3c2.8,0,5.2-2.3,5.2-5.2C13.2,2.3,10.9,0,8,0C5.2,0,2.9,2.3,2.9,5.2
	C2.9,8,5.2,10.3,8,10.3L8,10.3z M8,1.7c1.9,0,3.4,1.5,3.4,3.4c0,1.9-1.5,3.4-3.4,3.4c-1.9,0-3.4-1.5-3.4-3.4C4.6,3.3,6.1,1.7,8,1.7
	L8,1.7z"
  style="fill:#fff;"/>
</svg>
