<svg xmlns="http://www.w3.org/2000/svg" viewBox="0 0 500 500">
    <style>
        .icon-color {
            fill: #fff;
        }
    </style>
    <g id="Cockpit">
        <path class="icon-color"
            d="M271.0487,300.1543v17.631h29.9755v11.05H202.5287v-11.05h30.0046v-17.631H165.7378a10.1424,10.1424,0,0,1-10.1236-10.1106V188.7842a10.1425,10.1425,0,0,1,10.1236-10.1106H337.844a10.1425,10.1425,0,0,1,10.1236,10.1106v101.26a10.1424,10.1424,0,0,1-10.1236,10.1106Zm65.8614-110.43H166.67v99.38H336.91v-99.38Z"/>
        <path class="icon-color"
            d="M414,247.958A167.36,167.36,0,0,1,256.2019,415.0588v22.8143L192.32,401.0258l63.8823-36.8618v22.9346a139.4853,139.4853,0,0,0,40.4106-269.38l29.5528-17.06A167.3233,167.3233,0,0,1,414,247.958Zm-327.7556.6356A167.3662,167.3662,0,0,1,244.07,81.5073V58.6712L307.9523,95.533,244.07,132.402V109.4544a139.4938,139.4938,0,0,0-40.41,269.3927l-29.5514,17.0387A167.3177,167.3177,0,0,1,86.2444,248.5936Z"/>
    </g>
</svg>
