<svg id="ERP" xmlns="http://www.w3.org/2000/svg" viewBox="0 0 500 500">
    <style>
        .icon-color {
        fill: #fff;
        }
    </style>
    <path class="icon-color"
        d="M322.1312,398.1832a23.9683,23.9683,0,1,0-17.441,29.0513,23.94,23.94,0,0,0,17.441-29.0513Zm12.192-3.0225a36.5131,36.5131,0,1,1-44.2827-26.5936,36.5236,36.5236,0,0,1,44.2827,26.5936Z"/>
    <path class="icon-color"
        d="M351.9972,236.7476a8.7141,8.7141,0,0,0-1.1294-4.3016,7.7638,7.7638,0,0,0-3.1891-3.1892,9.117,9.117,0,0,0-4.817-1.2467h-11.993v17.3917h11.993a9.5857,9.5857,0,0,0,4.817-1.18,8.4694,8.4694,0,0,0,3.1891-3.1721,9.3032,9.3032,0,0,0,1.1294-4.3016Zm21.1609,0A27.8914,27.8914,0,0,1,369.67,250.285a26.265,26.265,0,0,1-10.0319,10.1986,30.7136,30.7136,0,0,1-15.8456,3.9036H330.8687v30.63H309.7078V209.091h34.0843a30.7093,30.7093,0,0,1,15.8456,3.8866A25.8925,25.8925,0,0,1,369.67,223.11a28.086,28.086,0,0,1,3.4885,13.6378Zm-99.8614,0a8.3692,8.3692,0,0,0-1.1294-4.3016,7.6794,7.6794,0,0,0-3.1551-3.1892,9.3251,9.3251,0,0,0-4.851-1.2467h-11.959v17.3917h11.959a9.8075,9.8075,0,0,0,4.851-1.18,8.3716,8.3716,0,0,0,3.1551-3.1721,8.5472,8.5472,0,0,0,1.1294-4.3016Zm25.68,58.2693h-24.45l-15.2146-31.9921h-7.11v31.9921H231.0413V209.091h34.05a30.8327,30.8327,0,0,1,15.88,3.8866,26.0456,26.0456,0,0,1,10,10.1322,27.7337,27.7337,0,0,1,3.4886,13.6378,23.12,23.12,0,0,1-4.12,13.8368,26.7134,26.7134,0,0,1-9.9009,8.6031l18.5381,35.8294Zm-82.8524,0H157.6561V209.091h58.4684v18.8034H178.817v14.3675h31.8918v18.87H178.817v15.0818h37.3075v18.8034Z"/>
    <path class="icon-color"
        d="M424.88,285.7587a174.7937,174.7937,0,0,0-1.8578-81.1531,36.52,36.52,0,0,0-31.2454-62.795,174.7764,174.7764,0,0,0-66.4662-51.9,36.5259,36.5259,0,0,0-67.2812-14.9429c-1.1419-.0235-2.2858-.0388-3.4333-.0388a173.3257,173.3257,0,0,0-81.2514,20.1141,36.5249,36.5249,0,0,0-52.3819,42.3842A173.4879,173.4879,0,0,0,83.35,217.1833a36.4959,36.4959,0,0,0,.6455,67.0934,173.5588,173.5588,0,0,0,38.4051,78.1972,36.5238,36.5238,0,0,0,54.3227,42.4382,173.4224,173.4224,0,0,0,77.8722,18.3524,175.7922,175.7922,0,0,0,20.3211-1.1948,29.7365,29.7365,0,0,1-5.57-13.5q-7.2869.6654-14.7506.6766A159.5353,159.5353,0,0,1,187.3482,394.47a36.5195,36.5195,0,0,0-57.3929-44.849,159.6142,159.6142,0,0,1-30.9644-62.5236,36.511,36.511,0,0,0-.2653-73.0057c-.1408-.0025-.2795.004-.42.003a159.4892,159.4892,0,0,1,29.8728-63.3131,36.4932,36.4932,0,0,0,56.7106-45.9169,159.4139,159.4139,0,0,1,68.0427-15.9227,36.5,36.5,0,0,0,71.08,15.7835,160.7328,160.7328,0,0,1,54.1822,42.5268,36.5123,36.5123,0,0,0,32.2638,64.9158,160.6283,160.6283,0,0,1,1.4251,67.14,36.5076,36.5076,0,0,0-29.2231,65.9306,160.8414,160.8414,0,0,1-56.3288,47.0735,29.7827,29.7827,0,0,1,2.4908,11.9492c0,.8357-.0432,1.6608-.1105,2.4791a174.9258,174.9258,0,0,0,67.4427-56.1977A36.5034,36.5034,0,0,0,424.88,285.7587ZM172.4084,355.81a23.9684,23.9684,0,1,1-33.7849,2.9561A23.9623,23.9623,0,0,1,172.4084,355.81Zm-50.3618-104.794a23.9727,23.9727,0,1,1-23.52-24.3841A23.9781,23.9781,0,0,1,122.0466,251.0164Zm49.0658-105.1937a23.9622,23.9622,0,1,1,3.5225-33.7032A23.9775,23.9775,0,0,1,171.1124,145.8227Zm141.387-46.608A23.9755,23.9755,0,1,1,294.03,70.81,24.008,24.008,0,0,1,312.4994,99.2147Zm64.25,89.03A23.9686,23.9686,0,1,1,408.7736,199.29,23.956,23.956,0,0,1,376.7491,188.2448Zm47.438,136.4715a23.9574,23.9574,0,1,1-11.5592-31.8425A23.9287,23.9287,0,0,1,424.1871,324.7163Z"/>
</svg>
