<svg xmlns="http://www.w3.org/2000/svg" viewBox="0 0 500 500">
    <style>
        .icon-color {
        fill: #fff;
        }
    </style>
    <g id="Tempo">
        <path class="icon-color"
            d="M249.5433,86.2788c85.7017,0,155.5827,69.881,155.5827,155.5609,0,73.3261-51.1248,135.0627-119.6012,151.3733l75.7084,18.63v13.0986H137.8426V411.8429l75.6867-18.63C145.116,376.9024,93.9476,315.1658,93.9476,241.84c0-85.68,69.881-155.5609,155.5957-155.5609ZM245.6715,227.72l-9.8779-46.2316,14.0459-17.46,14.0785,17.46L254.0511,227.72a15.7022,15.7022,0,0,1,8.9327,23.6276l42.8716,30.411,22.7978,37.1508-37.1747-22.8175-30.1976-42.5754a15.5164,15.5164,0,0,1-11.4414,4.976,15.67,15.67,0,0,1-4.168-30.7725Zm-116.9533,6.6136h16.8856V249.39H128.7182c3.7434,60.6934,52.6122,109.5426,113.297,113.286V344.4509h15.0563v18.2248c60.6935-3.7434,109.5622-52.5926,113.3056-113.286h-18.203V234.3334h18.203A121.3517,121.3517,0,0,0,257.0715,121.0277v16.8856H242.0152V121.0277a121.3349,121.3349,0,0,0-113.297,113.3057ZM240.1859,48h18.7148a14.7754,14.7754,0,0,1,14.7582,14.7362V75.3056a190.79,190.79,0,0,0-48.2418,0V62.7362A14.79,14.79,0,0,1,240.1859,48Z"/>
    </g>
</svg>
