<svg xmlns="http://www.w3.org/2000/svg" viewBox="0 0 500 500">
    <style>
        .icon-color {
        fill: #fff;
        }
    </style>
    <g id="Ohne_Berater" data-name="Ohne Berater">
        <polygon class="icon-color" points="247.205 233.005 201.925 233.005 236.218 261.155 247.205 233.005"/>
        <polygon class="icon-color"
            points="186.979 253.366 195.022 269.689 208.828 269.689 216.888 253.366 201.925 241.084 186.979 253.366"/>
        <path class="icon-color"
            d="M259.0886,233.0048,223.52,366.8976,208.8276,276.736H195.0222L180.33,366.97,144.752,233.0048h-7.6634a65.7125,65.7125,0,0,0-65.5245,65.5244v80.1981H276.0105V233.6559a68.349,68.349,0,0,0-9.2753-.6511Z"/>
        <path class="icon-color" d="M201.925,221.9894a71.3216,71.3216,0,1,0-71.3217-71.3216A71.4705,71.4705,0,0,0,201.925,221.9894Z"/>
        <polygon class="icon-color" points="167.632 261.155 201.925 233.005 156.654 233.005 167.632 261.155"/>
        <path class="icon-color"
            d="M420.5384,295.5222H398.7266a7.7009,7.7009,0,0,0-7.6818,7.6985v2.9162a7.6787,7.6787,0,0,0,7.6818,7.7h21.8118a7.6771,7.6771,0,0,0,7.68-7.7v-2.9162A7.6993,7.6993,0,0,0,420.5384,295.5222Z"/>
        <path class="icon-color"
            d="M420.5384,252.7872H398.7266a7.7008,7.7008,0,0,0-7.6818,7.6985V263.42a7.7025,7.7025,0,0,0,7.6818,7.7h21.8118a7.7009,7.7009,0,0,0,7.68-7.7v-2.9347A7.6992,7.6992,0,0,0,420.5384,252.7872Z"/>
        <path class="icon-color"
            d="M420.5384,274.1631H398.7266a7.69,7.69,0,0,0-7.6818,7.7V284.78a7.689,7.689,0,0,0,7.6818,7.6985h21.8118a7.6873,7.6873,0,0,0,7.68-7.6985v-2.9161A7.6889,7.6889,0,0,0,420.5384,274.1631Z"/>
        <path class="icon-color"
            d="M420.5384,316.8981H406.9149a7.7207,7.7207,0,0,0-7.7171,7.7v.38a7.719,7.719,0,0,0,7.7171,7.6985h13.6235a7.7791,7.7791,0,0,0,7.68-8.0787A7.689,7.689,0,0,0,420.5384,316.8981Z"/>
        <path class="icon-color"
            d="M395.6824,326.2105v-3.8047a33.86,33.86,0,0,1,.9072-5.7247A10.0088,10.0088,0,0,1,386.5889,306.68v-3.8029a10.0491,10.0491,0,0,1,5.4706-8.9136,10.0273,10.0273,0,0,1-5.4706-8.9135v-3.7862a10.0532,10.0532,0,0,1,5.4706-8.93,10.0273,10.0273,0,0,1-5.4706-8.9135v-3.7862A10.01,10.01,0,0,1,396.59,249.6335h15.3246V201.8991H287.2058V379H411.9142V336.2093H405.646A9.9778,9.9778,0,0,1,395.6824,326.2105ZM349.959,272.46v8.2978H326.6259v10.67H349.959v8.3144H327.2418a33.9826,33.9826,0,0,0,1.267,8.678,13.89,13.89,0,0,0,3.443,5.452,19.8448,19.8448,0,0,0,5.7247,3.968,17.396,17.396,0,0,0,7.3182,1.5044c4.9643,0,8.9488-1.4135,11.8837-4.2221a21.1814,21.1814,0,0,0,6.233-11.0506h13.514c-1.5583,8.7874-5.2183,15.5083-10.9059,20.235q-8.5869,6.9565-20.7248,6.94a33.1475,33.1475,0,0,1-12.7886-2.3559,30.6278,30.6278,0,0,1-10.0379-6.7023,26.77,26.77,0,0,1-6.3406-9.5648,51.4617,51.4617,0,0,1-2.2463-12.8815h-8.6578v-8.3144h8.2958v-10.67h-8.2958V272.46h8.6578c.1816-2.4987.4358-4.7823.7622-6.8284a29.18,29.18,0,0,1,1.4841-5.7081,24.29,24.29,0,0,1,2.4655-4.8361,33.2133,33.2133,0,0,1,3.8751-4.6024,30.6262,30.6262,0,0,1,10.0379-6.7023,33.1809,33.1809,0,0,1,12.7886-2.3541q12.2824,0,20.7248,7.0826c5.6876,4.6377,9.3476,11.3233,10.9059,20.1089H362.9665a21.3016,21.3016,0,0,0-6.0881-11.0691c-2.9349-2.79-6.9194-4.2036-11.8837-4.2036a17.6767,17.6767,0,0,0-7.3182,1.4859,20.2113,20.2113,0,0,0-5.7247,3.968,15.4976,15.4976,0,0,0-2.1017,2.6081,19.281,19.281,0,0,0-1.3413,2.8624,22.0254,22.0254,0,0,0-.8682,3.6044c-.1818,1.306-.3265,2.8271-.3988,4.5838Z"/>
    </g>
</svg>
