<svg id="Ebene_1" data-name="Ebene 1" xmlns="http://www.w3.org/2000/svg" viewBox="0 0 16 16">
    <title>apple-favicon</title>
    <path d="M6.9859,6.9456a2.0017,2.0017,0,0,0,1.6193.7456,2.218,2.218,0,0,0,2.1742-2.4654A2.804,2.804,0,0,0,10.3218,3.61l2.1835-2.1833a5.5269,5.5269,0,0,1,1.4791,3.7995A5.1724,5.1724,0,0,1,8.964,10.56a3.8,3.8,0,0,1-2.4878-.874V16H3.2937V10.6381Z"/>
    <path d="M7.4876.5826A4.2525,4.2525,0,0,0,3.3194,5.1545a5.2393,5.2393,0,0,0,.4334,2.1432l-.9942.9941,0-8.09h.6053V2.4875A4.7576,4.7576,0,0,1,7.5773,0a4.8483,4.8483,0,0,1,2.6791.7943L9.8411,1.21A4.5036,4.5036,0,0,0,7.4876.5826"/>
</svg>